<mxfile host="65bd71144e">
    <diagram id="-55225dTMH6KRCjdtvrq" name="Page-1">
        <mxGraphModel dx="594" dy="561" grid="1" gridSize="10" guides="1" tooltips="1" connect="1" arrows="1" fold="1" page="1" pageScale="1" pageWidth="827" pageHeight="1169" math="0" shadow="0">
            <root>
                <mxCell id="0"/>
                <mxCell id="1" parent="0"/>
                <mxCell id="2" value="mcdonaldsÂ " style="swimlane;fillColor=#d80073;fontColor=#ffffff;strokeColor=#A50040;" parent="1" vertex="1">
                    <mxGeometry x="70" y="190" width="460" height="240" as="geometry"/>
                </mxCell>
                <mxCell id="3" value="" style="rounded=0;whiteSpace=wrap;html=1;fillColor=#fff2cc;strokeColor=#d6b656;" vertex="1" parent="1">
                    <mxGeometry x="70" y="210" width="460" height="470" as="geometry"/>
                </mxCell>
                <mxCell id="5" value="Actor" style="shape=umlActor;verticalLabelPosition=bottom;verticalAlign=top;html=1;outlineConnect=0;fillColor=#e3c800;fontColor=#000000;strokeColor=#B09500;" vertex="1" parent="1">
                    <mxGeometry x="414" y="230" width="60" height="110" as="geometry"/>
                </mxCell>
                <mxCell id="12" value="hamburger" style="text;html=1;align=center;verticalAlign=middle;whiteSpace=wrap;rounded=0;fontColor=#660033;" vertex="1" parent="1">
                    <mxGeometry x="70" y="230" width="60" height="30" as="geometry"/>
                </mxCell>
                <mxCell id="17" value="fries" style="text;html=1;align=center;verticalAlign=middle;whiteSpace=wrap;rounded=0;fontColor=#660033;" vertex="1" parent="1">
                    <mxGeometry x="70" y="310" width="60" height="20" as="geometry"/>
                </mxCell>
                <mxCell id="27" style="edgeStyle=none;html=1;fontColor=#660033;" edge="1" parent="1" source="18" target="3">
                    <mxGeometry relative="1" as="geometry"/>
                </mxCell>
                <mxCell id="18" value="McWrap" style="text;html=1;align=center;verticalAlign=middle;whiteSpace=wrap;rounded=0;fontColor=#660033;" vertex="1" parent="1">
                    <mxGeometry x="70" y="380" width="60" height="30" as="geometry"/>
                </mxCell>
                <mxCell id="28" style="edgeStyle=none;html=1;exitX=0.75;exitY=1;exitDx=0;exitDy=0;fontColor=#660033;" edge="1" parent="1" source="19" target="23">
                    <mxGeometry relative="1" as="geometry"/>
                </mxCell>
                <mxCell id="19" value="HappyMeal" style="text;html=1;align=center;verticalAlign=middle;whiteSpace=wrap;rounded=0;fontColor=#660033;" vertex="1" parent="1">
                    <mxGeometry x="70" y="450" width="60" height="20" as="geometry"/>
                </mxCell>
                <mxCell id="20" value="" style="whiteSpace=wrap;html=1;aspect=fixed;fontColor=#ffffff;fillColor=#d80073;strokeColor=#A50040;" vertex="1" parent="1">
                    <mxGeometry x="90" y="260" width="20" height="20" as="geometry"/>
                </mxCell>
                <mxCell id="21" value="" style="whiteSpace=wrap;html=1;aspect=fixed;fontColor=#ffffff;fillColor=#d80073;strokeColor=#A50040;" vertex="1" parent="1">
                    <mxGeometry x="90" y="330" width="20" height="20" as="geometry"/>
                </mxCell>
                <mxCell id="22" value="" style="whiteSpace=wrap;html=1;aspect=fixed;fontColor=#ffffff;fillColor=#d80073;strokeColor=#A50040;" vertex="1" parent="1">
                    <mxGeometry x="90" y="410" width="20" height="20" as="geometry"/>
                </mxCell>
                <mxCell id="23" value="" style="whiteSpace=wrap;html=1;aspect=fixed;fontColor=#ffffff;fillColor=#d80073;strokeColor=#A50040;" vertex="1" parent="1">
                    <mxGeometry x="90" y="470" width="20" height="20" as="geometry"/>
                </mxCell>
                <mxCell id="43" value="button" style="rounded=1;whiteSpace=wrap;html=1;fontColor=#000000;fillColor=#e3c800;strokeColor=#B09500;" vertex="1" parent="1">
                    <mxGeometry x="80" y="630" width="70" height="30" as="geometry"/>
                </mxCell>
                <mxCell id="44" value="answer" style="text;html=1;strokeColor=none;fillColor=none;align=center;verticalAlign=middle;whiteSpace=wrap;rounded=0;fontColor=#660033;" vertex="1" parent="1">
                    <mxGeometry x="414" y="390" width="60" height="30" as="geometry"/>
                </mxCell>
                <mxCell id="46" value="" style="rounded=0;whiteSpace=wrap;html=1;fontColor=#660033;strokeColor=#660033;fillColor=none;" vertex="1" parent="1">
                    <mxGeometry x="80" y="290" width="120" height="20" as="geometry"/>
                </mxCell>
                <mxCell id="47" value="" style="rounded=0;whiteSpace=wrap;html=1;fontColor=#660033;strokeColor=#660033;fillColor=none;" vertex="1" parent="1">
                    <mxGeometry x="80" y="360" width="120" height="20" as="geometry"/>
                </mxCell>
                <mxCell id="48" value="" style="rounded=0;whiteSpace=wrap;html=1;fontColor=#660033;strokeColor=#660033;fillColor=none;" vertex="1" parent="1">
                    <mxGeometry x="80" y="430" width="120" height="20" as="geometry"/>
                </mxCell>
                <mxCell id="49" value="" style="rounded=0;whiteSpace=wrap;html=1;fontColor=#660033;strokeColor=#660033;fillColor=none;" vertex="1" parent="1">
                    <mxGeometry x="80" y="490" width="120" height="20" as="geometry"/>
                </mxCell>
                <mxCell id="50" value="Drink" style="text;html=1;strokeColor=none;fillColor=none;align=center;verticalAlign=middle;whiteSpace=wrap;rounded=0;fontColor=#660033;" vertex="1" parent="1">
                    <mxGeometry x="70" y="510" width="60" height="30" as="geometry"/>
                </mxCell>
                <mxCell id="51" value="" style="rounded=0;whiteSpace=wrap;html=1;fontColor=#660033;strokeColor=#660033;fillColor=none;" vertex="1" parent="1">
                    <mxGeometry x="80" y="560" width="120" height="20" as="geometry"/>
                </mxCell>
                <mxCell id="53" value="" style="rounded=0;whiteSpace=wrap;html=1;fontColor=#660033;strokeColor=#660033;fillColor=none;" vertex="1" parent="1">
                    <mxGeometry x="80" y="590" width="120" height="20" as="geometry"/>
                </mxCell>
                <mxCell id="54" value="" style="whiteSpace=wrap;html=1;aspect=fixed;fontColor=#ffffff;fillColor=#d80073;strokeColor=#A50040;" vertex="1" parent="1">
                    <mxGeometry x="90" y="530" width="20" height="20" as="geometry"/>
                </mxCell>
            </root>
        </mxGraphModel>
    </diagram>
</mxfile>